<svg width="220" height="220" viewBox="0 0 220 220" fill="none" xmlns="http://www.w3.org/2000/svg">
<g id="Frame 145">
<g id="Group 103">
<circle id="Ellipse 42" cx="110" cy="110" r="103" fill="#F3F4F8"/>
<g id="Group 102">
<g id="Group 99">
<g id="Subtract">
<mask id="path-2-inside-1_612_4606" fill="white">
<path fill-rule="evenodd" clip-rule="evenodd" d="M55.2648 41.137H55.2646V171.331C55.2646 173.54 57.0555 175.331 59.2646 175.331H151.322C153.531 175.331 155.322 173.54 155.322 171.331V45.137C155.322 42.9278 153.531 41.137 151.322 41.137H90.5791L55.2648 76.4512L55.2648 41.137Z"/>
</mask>
<path fill-rule="evenodd" clip-rule="evenodd" d="M55.2648 41.137H55.2646V171.331C55.2646 173.54 57.0555 175.331 59.2646 175.331H151.322C153.531 175.331 155.322 173.54 155.322 171.331V45.137C155.322 42.9278 153.531 41.137 151.322 41.137H90.5791L55.2648 76.4512L55.2648 41.137Z" fill="#E6E6E6"/>
<path d="M55.2646 41.137V40.137H54.2646V41.137H55.2646ZM55.2648 41.137L56.2648 41.137V40.137H55.2648V41.137ZM90.5791 41.137V40.137H90.1649L89.872 40.4299L90.5791 41.137ZM55.2648 76.4512H54.2648L54.2648 78.8655L55.9719 77.1584L55.2648 76.4512ZM55.2646 42.137H55.2648V40.137H55.2646V42.137ZM56.2646 171.331V41.137H54.2646V171.331H56.2646ZM59.2646 174.331C57.6078 174.331 56.2646 172.988 56.2646 171.331H54.2646C54.2646 174.093 56.5032 176.331 59.2646 176.331V174.331ZM151.322 174.331H59.2646V176.331H151.322V174.331ZM154.322 171.331C154.322 172.988 152.979 174.331 151.322 174.331V176.331C154.083 176.331 156.322 174.093 156.322 171.331H154.322ZM154.322 45.137V171.331H156.322V45.137H154.322ZM151.322 42.137C152.979 42.137 154.322 43.4801 154.322 45.137H156.322C156.322 42.3755 154.083 40.137 151.322 40.137V42.137ZM90.5791 42.137H151.322V40.137H90.5791V42.137ZM89.872 40.4299L54.5577 75.7441L55.9719 77.1584L91.2862 41.8441L89.872 40.4299ZM56.2648 76.4512L56.2648 41.137L54.2648 41.137L54.2648 76.4512H56.2648Z" fill="#A7A7A7" mask="url(#path-2-inside-1_612_4606)"/>
</g>
<path id="Polygon 7" d="M90.0791 72.4513L90.0791 42.3441L56.4719 75.9513L86.5791 75.9513C88.5121 75.9513 90.0791 74.3843 90.0791 72.4513Z" fill="#D0D0D0" stroke="#A7A7A7"/>
</g>
<rect id="Rectangle 133" x="65.8574" y="94.1084" width="60.0343" height="7.06286" rx="1" fill="#A7A7A7"/>
<rect id="Rectangle 134" x="65.8574" y="109.411" width="38.8457" height="7.06286" rx="1" fill="#A7A7A7"/>
<rect id="Rectangle 135" x="65.8574" y="124.714" width="81.2229" height="7.06286" rx="1" fill="#D0D0D0"/>
<rect id="Rectangle 136" x="65.8574" y="140.017" width="16.48" height="7.06286" rx="1" fill="#A7A7A7"/>
<rect id="Rectangle 138" x="107.059" y="140.017" width="40.0229" height="7.06286" rx="1" fill="#D0D0D0"/>
<g id="Group 101">
<g id="Group 100">
<path id="Rectangle 132" d="M163.756 69.8635C165.318 68.3014 167.85 68.3014 169.412 69.8635L183.732 84.1826C185.294 85.7447 185.294 88.2774 183.732 89.8395L135.191 138.38L115.215 118.404L163.756 69.8635Z" fill="#C2C2C2" stroke="#A7A7A7" stroke-linejoin="round"/>
<path id="Polygon 6" d="M112.967 142.993C111.557 143.285 110.31 142.038 110.602 140.628L115.215 118.404L135.191 138.38L112.967 142.993Z" fill="#F3F4F8" stroke="#A7A7A7" stroke-linejoin="round"/>
<g id="Subtract_2">
<path fill-rule="evenodd" clip-rule="evenodd" d="M169.412 69.8631C167.85 68.301 165.318 68.301 163.756 69.8631L115.215 118.404L118.848 122.036L170.217 70.6677L183.766 84.2169C183.755 84.2053 183.743 84.1938 183.732 84.1822L169.412 69.8631Z" fill="#D9D9D9"/>
<path d="M115.215 118.404L114.862 118.05C114.666 118.245 114.666 118.562 114.862 118.757L115.215 118.404ZM118.848 122.036L118.494 122.39C118.69 122.585 119.006 122.585 119.202 122.39L118.848 122.036ZM170.217 70.6677L170.57 70.3142C170.375 70.1189 170.058 70.1189 169.863 70.3142L170.217 70.6677ZM183.766 84.2169L183.412 84.5705C183.607 84.7649 183.922 84.7659 184.117 84.5726C184.313 84.3793 184.316 84.0644 184.124 83.8676L183.766 84.2169ZM164.109 70.2167C165.476 68.8498 167.692 68.8498 169.059 70.2166L169.766 69.5095C168.009 67.7522 165.159 67.7522 163.402 69.5095L164.109 70.2167ZM115.569 118.757L164.109 70.2167L163.402 69.5095L114.862 118.05L115.569 118.757ZM119.202 121.683L115.569 118.05L114.862 118.757L118.494 122.39L119.202 121.683ZM119.202 122.39L170.57 71.0213L169.863 70.3142L118.494 121.683L119.202 122.39ZM169.863 71.0213L183.412 84.5705L184.119 83.8634L170.57 70.3142L169.863 71.0213ZM183.378 84.5358C183.388 84.5459 183.398 84.5561 183.408 84.5662L184.124 83.8676C184.111 83.8546 184.098 83.8416 184.085 83.8287L183.378 84.5358ZM169.059 70.2166L183.378 84.5358L184.085 83.8287L169.766 69.5095L169.059 70.2166Z" fill="#A7A7A7"/>
</g>
<path id="Subtract_3" d="M110.714 140.1C110.369 141.76 111.838 143.228 113.497 142.884L121.013 141.324L112.274 132.584L110.714 140.1Z" fill="#818181" stroke="#818181"/>
</g>
</g>
</g>
</g>
</g>
</svg>
