<svg width="48" height="48" viewBox="0 0 48 48" fill="none" xmlns="http://www.w3.org/2000/svg">
<g id="fluent:arrow-up-24-regular">
<path id="Vector" d="M21.8889 11.3154C22.1306 11.1019 22.4483 10.989 22.7741 11.0008C23.0998 11.0127 23.408 11.1483 23.6328 11.3788C23.8576 11.6092 23.9813 11.9163 23.9774 12.2345C23.9736 12.5527 23.8425 12.8569 23.6122 13.0821L13.1942 22.7679L37.75 22.7679C38.0815 22.7679 38.3995 22.8965 38.6339 23.1253C38.8683 23.3541 39 23.6644 39 23.988C39 24.3116 38.8683 24.6219 38.6339 24.8507C38.3995 25.0795 38.0815 25.2081 37.75 25.2081L13.1942 25.2081L23.6122 34.8956C23.7311 35.006 23.8266 35.1382 23.8932 35.2847C23.9598 35.4312 23.9962 35.589 24.0003 35.7492C24.0044 35.9094 23.9761 36.0689 23.9171 36.2184C23.8581 36.3679 23.7695 36.5047 23.6563 36.6208C23.5432 36.7369 23.4077 36.8301 23.2576 36.8951C23.1076 36.9601 22.9459 36.9956 22.7818 36.9996C22.6176 37.0036 22.4543 36.976 22.3011 36.9184C22.1479 36.8608 22.0078 36.7743 21.8889 36.6639L9.52261 25.1674C9.25196 24.9168 9.07581 24.5843 9.02263 24.2239C8.99191 24.068 8.99247 23.9078 9.0243 23.7521C9.07819 23.3928 9.25428 23.0617 9.52428 22.8119L21.8889 11.3154Z" fill="#ACACAC"/>
</g>
</svg>
