<svg width="48" height="48" viewBox="0 0 48 48" fill="none" xmlns="http://www.w3.org/2000/svg">
<g id="fluent:arrow-up-24-regular">
<path id="Vector" d="M26.1111 11.3154C25.8694 11.1019 25.5517 10.989 25.2259 11.0008C24.9002 11.0127 24.592 11.1483 24.3672 11.3788C24.1424 11.6092 24.0187 11.9163 24.0226 12.2345C24.0264 12.5527 24.1575 12.8569 24.3878 13.0821L34.8058 22.7679L10.25 22.7679C9.91845 22.7679 9.60052 22.8965 9.3661 23.1253C9.13169 23.3541 9 23.6644 9 23.988C9 24.3116 9.13169 24.6219 9.3661 24.8507C9.60052 25.0795 9.91845 25.2081 10.25 25.2081L34.8058 25.2081L24.3878 34.8956C24.2689 35.006 24.1734 35.1382 24.1068 35.2847C24.0402 35.4312 24.0038 35.589 23.9997 35.7492C23.9956 35.9094 24.0239 36.0689 24.0829 36.2184C24.1419 36.3679 24.2305 36.5047 24.3437 36.6208C24.4568 36.7369 24.5923 36.8301 24.7424 36.8951C24.8924 36.9601 25.0541 36.9956 25.2182 36.9996C25.3824 37.0036 25.5457 36.976 25.6989 36.9184C25.8521 36.8608 25.9922 36.7743 26.1111 36.6639L38.4774 25.1674C38.748 24.9168 38.9242 24.5843 38.9774 24.2239C39.0081 24.068 39.0075 23.9078 38.9757 23.7521C38.9218 23.3928 38.7457 23.0617 38.4757 22.8119L26.1111 11.3154Z" fill="#6C6C6C"/>
</g>
</svg>
