<svg width="42" height="42" viewBox="0 0 42 42" fill="none" xmlns="http://www.w3.org/2000/svg">
<g id="Property 1=Large, Property 2=default">
<circle id="Ellipse 56" cx="21" cy="21" r="21" fill="#3542BF"/>
<circle id="Ellipse 58" cx="21" cy="21" r="21" fill="#3542BF"/>
<path id="Union" fill-rule="evenodd" clip-rule="evenodd" d="M16.5947 9.72057L16.592 9.72176L16.5919 9.72162L18.6965 8.50658C25.0115 5.81218 31.6223 6.88142 34.1704 11.2948L27.1695 15.3368C25.5621 12.5382 21.279 7.62145 16.5956 9.72014L15.4555 10.3784C20.1403 8.27554 24.4252 13.1941 26.033 15.9934L15.0294 22.3463C13.4091 19.5543 11.2919 13.3841 15.4554 10.3784L15.4554 10.3784L16.5947 9.72057ZM13.8917 23.0028C12.2715 20.2112 10.1544 14.0419 14.3161 11.0358L12.213 12.25C6.72211 16.3717 4.3427 22.6315 6.89074 27.0448L13.8917 23.0028ZM27.712 16.2781L34.7136 12.2357C35.4404 13.4946 35.009 15.1042 33.7502 15.831L31.3074 17.2414C30.0485 17.9682 28.4388 17.5369 27.712 16.2781ZM7.43364 27.9855L14.4352 23.9431C15.162 25.202 14.7307 26.8116 13.4718 27.5384L11.029 28.9488C9.77012 29.6756 8.16044 29.2443 7.43364 27.9855ZM15.5727 23.2868L26.5751 16.9346C27.3019 18.1934 26.8706 19.8031 25.6117 20.5299L19.168 24.2502C17.9092 24.977 16.2995 24.5457 15.5727 23.2868ZM14.4075 8.81178C13.9472 9.07755 13.7895 9.66619 14.0553 10.1265L14.326 10.5955L15.993 9.63303L15.7223 9.16406C15.4565 8.70372 14.8679 8.546 14.4075 8.81178Z" fill="white"/>
<path id="Intersect" fill-rule="evenodd" clip-rule="evenodd" d="M31.046 39.4457L22.4408 24.541C22.1646 24.0627 22.3285 23.4512 22.8068 23.175L23.1207 22.9938C23.599 22.7176 24.2106 22.8815 24.4868 23.3598L33.0538 38.1983C32.4101 38.6503 31.7399 39.067 31.046 39.4457Z" fill="white"/>
</g>
</svg>
