<svg width="68" height="68" viewBox="0 0 68 68" fill="none" xmlns="http://www.w3.org/2000/svg">
<g id="Frame 133">
<circle id="Ellipse 48" cx="34" cy="34" r="34" fill="#3542BF"/>
<path id="Ellipse 52" d="M48.9269 3.45189C52.9386 5.41212 56.5248 8.14331 59.4809 11.4895C62.437 14.8357 64.7051 18.7314 66.1557 22.9542C67.6063 27.1769 68.2109 31.644 67.9351 36.1004C67.6592 40.5568 66.5083 44.9153 64.5481 48.9269C62.5879 52.9386 59.8567 56.5248 56.5105 59.4809C53.1643 62.4371 49.2686 64.7051 45.0458 66.1557C40.8231 67.6063 36.356 68.2109 31.8996 67.9351C27.4432 67.6592 23.0847 66.5083 19.0731 64.5481L34 34L48.9269 3.45189Z" fill="#FF99C4"/>
<g id="Group 64">
<line id="Line 8" x1="34.1622" y1="51.4594" x2="34.1622" y2="68" stroke="white" stroke-width="4"/>
<path id="Rectangle 65" d="M11.4152 25.3018C11.212 24.0827 12.1521 22.973 13.3879 22.973H54.612C55.8479 22.973 56.788 24.0827 56.5848 25.3018L54.2162 39.5135H13.7838L11.4152 25.3018Z" fill="white"/>
<path id="Polygon 4" d="M35.8997 54.4997C34.7946 55.4039 33.2054 55.4039 32.1003 54.4997L13.7838 39.5135L54.2162 39.5135L35.8997 54.4997Z" fill="white"/>
<path id="Polygon 4_2" d="M34 50.5405L20.2162 39.5135L47.7838 39.5135L34 50.5405Z" fill="#3542BF"/>
</g>
<path id="Ellipse 49" d="M41 14C37.134 14 34 17.5817 34 22H48C48 17.5817 44.866 14 41 14Z" fill="white"/>
<path id="Ellipse 51" d="M41 31C44.866 31 48 27.866 48 24L34 24C34 27.866 37.134 31 41 31Z" fill="#3542BF"/>
<ellipse id="Ellipse 50" cx="29.5" cy="32" rx="7.5" ry="7" fill="#FF99C4"/>
<path id="Star 3" d="M18 11L19.3505 14.6495L23 16L19.3505 17.3505L18 21L16.6495 17.3505L13 16L16.6495 14.6495L18 11Z" fill="white"/>
</g>
</svg>
