<svg width="48" height="48" viewBox="0 0 48 48" fill="none" xmlns="http://www.w3.org/2000/svg">
<g id="Frame 166">
<g id="Group 81">
<circle id="Ellipse 28" cx="23.9999" cy="23.9999" r="20.9999" fill="#3542BF"/>
<path id="Subtract" fill-rule="evenodd" clip-rule="evenodd" d="M32.8513 13.9752C21.7582 13.7726 8.49529 21.8705 3.10522 26.1166C3.79296 32.9882 7.7933 38.8836 13.4858 42.1824C24.1623 38.7937 33.5584 26.3819 37.4029 19.7091C36.1177 19.7323 34.6598 18.8792 33.7058 17.4091C32.972 16.2782 32.693 15.0238 32.8513 13.9752Z" fill="#FF99C4"/>
<path id="Subtract_2" fill-rule="evenodd" clip-rule="evenodd" d="M3 24C3 24.7144 3.03567 25.4205 3.10534 26.1165C8.49543 21.8705 21.7584 13.7724 32.8516 13.9751C32.9737 13.1657 33.3564 12.4788 33.9914 12.0659C26.0121 6.14542 18.1625 5.38477 13.0277 6.091C7.01217 9.78437 3 16.4236 3 24Z" fill="#3542BF"/>
<path id="Subtract_3" fill-rule="evenodd" clip-rule="evenodd" d="M38.4155 13.2897C37.9858 11.103 37.0754 8.77594 36.2206 6.95331C32.769 4.46549 28.5334 3.00012 23.956 3.00012C19.9311 3.00012 16.1705 4.13305 12.9749 6.09782C18.1138 5.39012 25.9696 6.15255 33.9552 12.0859C33.9557 12.0855 33.9562 12.0852 33.9567 12.0849C35.2301 11.2574 37.0955 11.8045 38.4155 13.2897Z" fill="#FF99C4"/>
<path id="Subtract_4" fill-rule="evenodd" clip-rule="evenodd" d="M39.5876 18.2881C42.0529 22.5208 44.2848 31.3023 38.0652 39.5938C42.3234 35.7505 44.9997 30.1878 44.9997 24C44.9997 20.1953 43.9879 16.6269 42.2187 13.5493C41.0963 13.3366 39.9038 13.3029 38.6473 13.5029C38.7677 13.6536 38.8825 13.8126 38.9909 13.9796C39.9436 15.4477 40.1296 17.124 39.5876 18.2881Z" fill="#FF99C4"/>
<path id="Subtract_5" fill-rule="evenodd" clip-rule="evenodd" d="M37.4038 19.7089C37.8702 19.7001 38.3138 19.5759 38.7023 19.3238C39.0934 19.07 39.389 18.7123 39.587 18.286C42.0526 22.5175 44.2861 31.2993 38.0676 39.5915C34.3443 42.9531 29.411 44.9998 23.9997 44.9998C20.169 44.9998 16.578 43.9742 13.4861 42.1825C24.1629 38.7941 33.5593 26.3819 37.4038 19.7089Z" fill="#3542BF"/>
<ellipse id="Ellipse 33" cx="36.3484" cy="15.6944" rx="4.32679" ry="3.14998" transform="rotate(57.0193 36.3484 15.6944)" fill="white"/>
</g>
</g>
</svg>
