<svg width="36" height="36" viewBox="0 0 36 36" fill="none" xmlns="http://www.w3.org/2000/svg">
<path fill-rule="evenodd" clip-rule="evenodd" d="M25 16.5C25 21.1944 21.1944 25 16.5 25C11.8056 25 8 21.1944 8 16.5C8 11.8056 11.8056 8 16.5 8C21.1944 8 25 11.8056 25 16.5ZM23.1841 24.5981C21.3683 26.0985 19.0394 27 16.5 27C10.701 27 6 22.299 6 16.5C6 10.701 10.701 6 16.5 6C22.299 6 27 10.701 27 16.5C27 19.0393 26.0986 21.3682 24.5983 23.1839L30.0002 28.5858L28.5859 30L23.1841 24.5981Z" fill="#6C6C6C"/>
</svg>
