<svg width="48" height="48" viewBox="0 0 48 48" fill="none" xmlns="http://www.w3.org/2000/svg">
<path d="M43 24C43 34.4934 34.4934 43 24 43C13.5066 43 5 34.4934 5 24C5 13.5066 13.5066 5 24 5C34.4934 5 43 13.5066 43 24Z" fill="white"/>
<path d="M20.4375 20.4375C20.4375 21.7492 19.3742 22.8125 18.0625 22.8125C16.7508 22.8125 15.6875 21.7492 15.6875 20.4375C15.6875 19.1258 16.7508 18.0625 18.0625 18.0625C19.3742 18.0625 20.4375 19.1258 20.4375 20.4375Z" fill="#474D8C"/>
<path d="M32.3125 20.4375C32.3125 21.7492 31.2492 22.8125 29.9375 22.8125C28.6258 22.8125 27.5625 21.7492 27.5625 20.4375C27.5625 19.1258 28.6258 18.0625 29.9375 18.0625C31.2492 18.0625 32.3125 19.1258 32.3125 20.4375Z" fill="#474D8C"/>
<path fill-rule="evenodd" clip-rule="evenodd" d="M24 31.125C26.4348 31.125 28.5272 29.6595 29.4434 27.5625H18.5566C19.4728 29.6595 21.5652 31.125 24 31.125ZM16.0317 27.5625C15.8078 26.81 15.6875 26.0128 15.6875 25.1875H32.3125C32.3125 26.0128 32.1922 26.81 31.9683 27.5625C30.9464 30.9961 27.7656 33.5 24 33.5C20.2344 33.5 17.0536 30.9961 16.0317 27.5625Z" fill="#474D8C"/>
</svg>
