<svg width="24" height="24" viewBox="0 0 24 24" fill="none" xmlns="http://www.w3.org/2000/svg">
<g id="Frame 159">
<path id="Subtract" fill-rule="evenodd" clip-rule="evenodd" d="M3 5C3 3.34315 4.15127 2 5.57143 2H21V5V8V16H5.57143C4.15127 16 3 17.3431 3 19V5Z" fill="#333333"/>
<path id="Rectangle 68 (Stroke) (Stroke)" fill-rule="evenodd" clip-rule="evenodd" d="M5.27167 18.1803C5.12897 18.3467 5 18.6303 5 19C5 19.3697 5.12897 19.6533 5.27167 19.8197C5.41076 19.982 5.52298 20 5.57143 20H19V18H5.57143C5.52298 18 5.41076 18.018 5.27167 18.1803ZM3 19C3 17.3431 4.15127 16 5.57143 16H21V22H5.57143C4.15127 22 3 20.6569 3 19Z" fill="#333333"/>
</g>
</svg>
