<svg width="48" height="48" viewBox="0 0 48 48" fill="none" xmlns="http://www.w3.org/2000/svg">
<g id="Frame 164">
<g id="Group 84">
<path id="Star 2" d="M22.9778 14.4843C23.406 13.6532 24.5942 13.6532 25.0224 14.4843L26.1949 16.76C26.4522 17.2594 27.0326 17.4998 27.5676 17.3286L30.0059 16.5485C30.8963 16.2636 31.7365 17.1038 31.4516 17.9942L30.6715 20.4325C30.5003 20.9675 30.7407 21.5479 31.2401 21.8052L33.5158 22.9777C34.3469 23.4059 34.3469 24.5941 33.5158 25.0223L31.2401 26.1948C30.7407 26.452 30.5003 27.0325 30.6715 27.5675L31.4516 30.0057C31.7365 30.8962 30.8963 31.7364 30.0059 31.4515L27.5676 30.6714C27.0326 30.5002 26.4522 30.7406 26.1949 31.24L25.0224 33.5157C24.5942 34.3468 23.406 34.3468 22.9778 33.5157L21.8054 31.24C21.5481 30.7406 20.9676 30.5002 20.4326 30.6714L17.9944 31.4515C17.1039 31.7364 16.2637 30.8962 16.5486 30.0057L17.3287 27.5675C17.4999 27.0325 17.2595 26.452 16.7601 26.1948L14.4844 25.0223C13.6533 24.5941 13.6533 23.4059 14.4844 22.9777L16.7601 21.8052C17.2595 21.5479 17.4999 20.9675 17.3287 20.4325L16.5486 17.9942C16.2637 17.1038 17.1039 16.2636 17.9944 16.5485L20.4326 17.3286C20.9676 17.4998 21.5481 17.2594 21.8054 16.76L22.9778 14.4843Z" fill="#3542BF"/>
<path id="Vector 90 (Stroke)" fill-rule="evenodd" clip-rule="evenodd" d="M1 24C1 23.3648 1.51487 22.85 2.15 22.85H4.45C5.08513 22.85 5.6 23.3648 5.6 24C5.6 24.6351 5.08513 25.15 4.45 25.15H2.15C1.51487 25.15 1 24.6351 1 24ZM7.9 24C7.9 23.3648 8.41487 22.85 9.05 22.85H11.35C11.9851 22.85 12.5 23.3648 12.5 24C12.5 24.6351 11.9851 25.15 11.35 25.15H9.05C8.41487 25.15 7.9 24.6351 7.9 24Z" fill="#333333"/>
<path id="Vector 91 (Stroke)" fill-rule="evenodd" clip-rule="evenodd" d="M7.0871 39.3686C6.638 38.9195 6.638 38.1914 7.0871 37.7422L8.71344 36.1159C9.16255 35.6668 9.89069 35.6668 10.3398 36.1159C10.7889 36.565 10.7889 37.2931 10.3398 37.7422L8.71344 39.3686C8.26434 39.8177 7.5362 39.8177 7.0871 39.3686ZM11.9661 34.4896C11.517 34.0405 11.517 33.3123 11.9661 32.8632L13.5925 31.2369C14.0416 30.7878 14.7697 30.7878 15.2188 31.2369C15.6679 31.686 15.6679 32.4141 15.2188 32.8632L13.5925 34.4896C13.1434 34.9387 12.4152 34.9387 11.9661 34.4896Z" fill="#333333"/>
<path id="Vector 92 (Stroke)" fill-rule="evenodd" clip-rule="evenodd" d="M35.5 24C35.5 23.3648 36.0149 22.85 36.65 22.85H38.95C39.5851 22.85 40.1 23.3648 40.1 24C40.1 24.6351 39.5851 25.15 38.95 25.15H36.65C36.0149 25.15 35.5 24.6351 35.5 24ZM42.4 24C42.4 23.3648 42.9149 22.85 43.55 22.85H45.85C46.4851 22.85 47 23.3648 47 24C47 24.6351 46.4851 25.15 45.85 25.15H43.55C42.9149 25.15 42.4 24.6351 42.4 24Z" fill="#333333"/>
<path id="Vector 93 (Stroke)" fill-rule="evenodd" clip-rule="evenodd" d="M32.3869 16.3686C31.9378 15.9195 31.9378 15.1914 32.3869 14.7422L34.0132 13.1159C34.4624 12.6668 35.1905 12.6668 35.6396 13.1159C36.0887 13.565 36.0887 14.2931 35.6396 14.7422L34.0132 16.3686C33.5641 16.8177 32.836 16.8177 32.3869 16.3686ZM37.2659 11.4896C36.8168 11.0405 36.8168 10.3123 37.2659 9.86321L38.8923 8.23687C39.3414 7.78776 40.0695 7.78776 40.5186 8.23686C40.9677 8.68597 40.9677 9.41411 40.5186 9.86321L38.8923 11.4896C38.4432 11.9387 37.715 11.9387 37.2659 11.4896Z" fill="#333333"/>
<path id="Vector 94 (Stroke)" fill-rule="evenodd" clip-rule="evenodd" d="M23.9999 35.5C24.635 35.5 25.1499 36.0149 25.1499 36.65L25.1499 38.95C25.1499 39.5851 24.635 40.1 23.9999 40.1C23.3648 40.1 22.8499 39.5851 22.8499 38.95L22.8499 36.65C22.8499 36.0149 23.3648 35.5 23.9999 35.5ZM23.9999 42.4C24.635 42.4 25.1499 42.9149 25.1499 43.55L25.1499 45.85C25.1499 46.4851 24.635 47 23.9999 47C23.3648 47 22.8499 46.4851 22.8499 45.85L22.8499 43.55C22.8499 42.9149 23.3648 42.4 23.9999 42.4Z" fill="#333333"/>
<path id="Vector 95 (Stroke)" fill-rule="evenodd" clip-rule="evenodd" d="M32.3868 32.3868C32.8359 31.9377 33.564 31.9377 34.0131 32.3868L35.6395 34.0131C36.0886 34.4622 36.0886 35.1904 35.6395 35.6395C35.1904 36.0886 34.4622 36.0886 34.0131 35.6395L32.3868 34.0131C31.9377 33.564 31.9377 32.8359 32.3868 32.3868ZM37.2658 37.2658C37.7149 36.8167 38.4431 36.8167 38.8922 37.2658L40.5185 38.8922C40.9676 39.3413 40.9676 40.0694 40.5185 40.5185C40.0694 40.9676 39.3413 40.9676 38.8922 40.5185L37.2658 38.8922C36.8167 38.4431 36.8167 37.7149 37.2658 37.2658Z" fill="#333333"/>
<path id="Vector 96 (Stroke)" fill-rule="evenodd" clip-rule="evenodd" d="M23.9999 1C24.635 1 25.1499 1.51487 25.1499 2.15L25.1499 4.45C25.1499 5.08513 24.635 5.6 23.9999 5.6C23.3648 5.6 22.8499 5.08513 22.8499 4.45L22.8499 2.15C22.8499 1.51487 23.3648 1 23.9999 1ZM23.9999 7.9C24.635 7.9 25.1499 8.41487 25.1499 9.05L25.1499 11.35C25.1499 11.9851 24.635 12.5 23.9999 12.5C23.3648 12.5 22.8499 11.9851 22.8499 11.35L22.8499 9.05C22.8499 8.41487 23.3648 7.9 23.9999 7.9Z" fill="#333333"/>
<path id="Vector 97 (Stroke)" fill-rule="evenodd" clip-rule="evenodd" d="M7.08673 8.23688C7.53583 7.78778 8.26397 7.78778 8.71308 8.23688L10.3394 9.86322C10.7885 10.3123 10.7885 11.0405 10.3394 11.4896C9.89032 11.9387 9.16218 11.9387 8.71308 11.4896L7.08673 9.86322C6.63763 9.41412 6.63763 8.68598 7.08673 8.23688ZM11.9658 13.1159C12.4149 12.6668 13.143 12.6668 13.5921 13.1159L15.2185 14.7423C15.6676 15.1914 15.6676 15.9195 15.2185 16.3686C14.7694 16.8177 14.0412 16.8177 13.5921 16.3686L11.9658 14.7423C11.5167 14.2932 11.5167 13.565 11.9658 13.1159Z" fill="#333333"/>
<path id="Ellipse 42" d="M6.7499 17.1C6.7499 18.3703 5.72016 19.4 4.4499 19.4C3.17965 19.4 2.1499 18.3703 2.1499 17.1C2.1499 15.8298 3.17965 14.8 4.4499 14.8C5.72016 14.8 6.7499 15.8298 6.7499 17.1Z" fill="#FF99C4"/>
<path id="Ellipse 43" d="M45.85 17.1C45.85 18.3703 44.8203 19.4 43.55 19.4C42.2797 19.4 41.25 18.3703 41.25 17.1C41.25 15.8298 42.2797 14.8 43.55 14.8C44.8203 14.8 45.85 15.8298 45.85 17.1Z" fill="#FF99C4"/>
<path id="Ellipse 44" d="M6.7499 32.05C6.7499 33.3203 5.72016 34.35 4.4499 34.35C3.17965 34.35 2.1499 33.3203 2.1499 32.05C2.1499 30.7797 3.17965 29.75 4.4499 29.75C5.72016 29.75 6.7499 30.7797 6.7499 32.05Z" fill="#FF99C4"/>
<path id="Ellipse 45" d="M45.85 32.05C45.85 33.3203 44.8203 34.35 43.55 34.35C42.2797 34.35 41.25 33.3203 41.25 32.05C41.25 30.7797 42.2797 29.75 43.55 29.75C44.8203 29.75 45.85 30.7797 45.85 32.05Z" fill="#FF99C4"/>
<path id="Ellipse 46" d="M18.2499 43.55C18.2499 44.8203 17.2202 45.85 15.9499 45.85C14.6796 45.85 13.6499 44.8203 13.6499 43.55C13.6499 42.2797 14.6796 41.25 15.9499 41.25C17.2202 41.25 18.2499 42.2797 18.2499 43.55Z" fill="#FF99C4"/>
<path id="Ellipse 47" d="M34.35 43.55C34.35 44.8203 33.3203 45.85 32.05 45.85C30.7797 45.85 29.75 44.8203 29.75 43.55C29.75 42.2797 30.7797 41.25 32.05 41.25C33.3203 41.25 34.35 42.2797 34.35 43.55Z" fill="#FF99C4"/>
<path id="Ellipse 48" d="M18.2499 4.45002C18.2499 5.72028 17.2202 6.75002 15.9499 6.75002C14.6796 6.75002 13.6499 5.72028 13.6499 4.45002C13.6499 3.17977 14.6796 2.15002 15.9499 2.15002C17.2202 2.15002 18.2499 3.17977 18.2499 4.45002Z" fill="#FF99C4"/>
<path id="Ellipse 49" d="M34.35 4.45002C34.35 5.72028 33.3203 6.75002 32.05 6.75002C30.7797 6.75002 29.75 5.72028 29.75 4.45002C29.75 3.17977 30.7797 2.15002 32.05 2.15002C33.3203 2.15002 34.35 3.17977 34.35 4.45002Z" fill="#FF99C4"/>
</g>
</g>
</svg>
