<svg width="36" height="36" viewBox="0 0 36 36" fill="none" xmlns="http://www.w3.org/2000/svg">
<g id="Property 1=default">
<path id="Union" fill-rule="evenodd" clip-rule="evenodd" d="M8.46667 6.73333H27.5333C28.4906 6.73333 29.2667 7.50937 29.2667 8.46667V10.1351L18.0213 20.9597L11.5591 16.4889C11.1646 16.216 10.6246 16.3161 10.353 16.7125C10.0814 17.1089 10.181 17.6515 10.5755 17.9244L18.2011 23.2L29.2667 12.5485V27.5333C29.2667 28.4906 28.4906 29.2667 27.5333 29.2667H8.46667C7.50937 29.2667 6.73333 28.4906 6.73333 27.5333V8.46667C6.73333 7.50937 7.50937 6.73333 8.46667 6.73333ZM31 10.8801L31 27.5333C31 29.4479 29.4479 31 27.5333 31H8.46667C6.55208 31 5 29.4479 5 27.5333V8.46667C5 6.55208 6.55208 5 8.46667 5H27.5333C29.4479 5 31 6.55208 31 8.46667L31 10.8801Z" fill="#ACACAC"/>
</g>
</svg>
