<svg width="36" height="36" viewBox="0 0 36 36" fill="none" xmlns="http://www.w3.org/2000/svg">
<circle cx="18" cy="18" r="13" fill="#D9D9D9"/>
<path fill-rule="evenodd" clip-rule="evenodd" d="M22.5368 12.2511C22.8715 11.9163 23.4142 11.9163 23.7489 12.2511C24.0837 12.5858 24.0837 13.1285 23.7489 13.4632L19.2122 18L23.7489 22.5368C24.0837 22.8715 24.0837 23.4142 23.7489 23.7489C23.4142 24.0837 22.8715 24.0837 22.5368 23.7489L18 19.2122L13.4632 23.7489C13.1285 24.0837 12.5858 24.0837 12.2511 23.7489C11.9163 23.4142 11.9163 22.8715 12.2511 22.5368L16.7878 18L12.2511 13.4632C11.9163 13.1285 11.9163 12.5858 12.2511 12.2511C12.5858 11.9163 13.1285 11.9163 13.4632 12.2511L18 16.7878L22.5368 12.2511Z" fill="#6C6C6C"/>
</svg>
