<svg width="192" height="40" viewBox="0 0 192 40" fill="none" xmlns="http://www.w3.org/2000/svg">
<g id="Group 77">
<g id="Group 73">
<path id="Union" fill-rule="evenodd" clip-rule="evenodd" d="M53.9946 14.6897C52.8363 16.0452 51.4192 16.7229 49.7434 16.7229H47.6362V23.0073H49.7434C51.3453 23.0073 52.9472 22.6746 54.5491 22.0092C55.6592 21.531 56.6805 20.8635 57.6131 20.0066C58.1717 20.357 58.7567 20.6547 59.3683 20.8999C60.9968 21.5294 62.6253 21.8441 64.2538 21.8441H65.0909V16.4509H64.2538C62.8731 16.4509 61.6651 16.0298 60.63 15.1876L60.6857 15.0594C60.8829 14.4186 61.117 13.5684 61.3881 12.5086H65.0908V6.96353H62.2383C62.3369 5.85451 62.3862 4.74549 62.3862 3.63647H56.1017C56.1017 4.62227 56.0278 5.73129 55.8799 6.96353H48.7452V12.5086H54.8818C54.6107 13.5437 54.315 14.2707 53.9946 14.6897ZM73.9323 40H80.3637V27.2955H66.0768H51.9368V33.5799H73.9323V40ZM80.3637 25.4471V4.72731H74.5455V12.4716H72.4476V4.72731H66.5328V25.4471H72.4476V18.3864H74.5455V25.4471H80.3637Z" fill="#333333"/>
<path id="Union_2" fill-rule="evenodd" clip-rule="evenodd" d="M192 40V4.72729H185.716V9.68092H181.686V15.226H185.716V40H192ZM166.788 14.7454C164.965 16.0022 163.005 16.6307 160.911 16.6307H159.636V22.9151H160.911C163.227 22.9151 165.433 22.4346 167.528 21.4734C168.773 20.9085 169.942 20.2245 171.035 19.4213C172.375 20.531 173.841 21.4465 175.431 22.1676C177.526 23.1288 179.732 23.6094 182.048 23.6094H183.273V17.3249H182.048C179.953 17.3249 177.994 16.6965 176.17 15.4396C175.942 15.282 175.719 15.12 175.502 14.9535C176.575 13.4948 177.416 11.9591 178.026 10.3462C178.741 8.52252 179.099 6.77274 179.099 5.09689H172.814C172.814 6.62487 172.26 8.30072 171.151 10.1244C170.066 11.9482 168.612 13.4885 166.788 14.7454Z" fill="#333333"/>
<path id="&#236;&#177;&#133;&#236;&#157;&#132; &#237;&#148;&#188;&#236;&#132;&#156;" d="M108.305 30.3947V29.5444H86.3092V24.369H114.589V34.0544H92.5936V34.9047H114.589V40H86.3092V30.3947H108.305ZM117.455 23.223H84V17.8627H117.455V23.223ZM100.726 10.839C102.747 10.839 104.337 10.839 105.495 10.839C106.678 10.8143 107.368 10.7773 107.565 10.7281C107.787 10.6541 107.898 10.5186 107.898 10.3214C107.898 10.1243 107.787 10.001 107.565 9.95174C107.368 9.8778 106.678 9.84084 105.495 9.84084C104.337 9.81619 102.747 9.80387 100.726 9.80387C98.6809 9.80387 97.0543 9.81619 95.8467 9.84084C94.6638 9.84084 93.9614 9.8778 93.7396 9.95174C93.5178 10.001 93.4069 10.1243 93.4069 10.3214C93.4069 10.5186 93.5178 10.6541 93.7396 10.7281C93.9614 10.7773 94.6638 10.8143 95.8467 10.839C97.0543 10.839 98.6809 10.839 100.726 10.839ZM100.726 16.6428C96.7832 16.6428 93.8135 16.3471 91.8173 15.7556C89.8457 15.1641 88.5642 14.4248 87.9727 13.5376C87.4059 12.6504 87.1224 11.5783 87.1224 10.3214C87.1224 9.03988 87.4182 7.9555 88.0097 7.06829C88.6011 6.18107 89.8827 5.45405 91.8543 4.88722C93.8505 4.29574 96.8079 4 100.726 4C104.596 4 107.516 4.29574 109.488 4.88722C111.459 5.47869 112.728 6.21804 113.295 7.10526C113.887 7.99247 114.183 9.06452 114.183 10.3214C114.183 11.6029 113.874 12.6873 113.258 13.5745C112.667 14.4618 111.385 15.2011 109.414 15.7926C107.442 16.3594 104.546 16.6428 100.726 16.6428Z" fill="#333333"/>
<path id="Union_3" fill-rule="evenodd" clip-rule="evenodd" d="M125.818 19.1445C131.684 19.1445 136.031 19.0706 139.284 18.9227C140.048 16.754 140.602 14.4251 140.948 11.9359H146.308C145.815 14.8687 145.31 17.0867 144.792 18.59C147.257 18.3682 149.253 18.1218 150.781 17.8507V4.72729H157.091V40H150.781V23.8339C142.375 25.663 130.708 25.413 125.818 25.0593V19.1445ZM126.909 5.13672H148.895V10.6818H126.909V5.13672ZM135.291 15.7094C135.217 15.1672 135.181 14.5141 135.181 13.7501V11.9757H129.82C129.82 14.3662 130.141 16.5226 130.781 18.445L135.772 17.3359C135.526 16.7691 135.365 16.2269 135.291 15.7094Z" fill="#333333"/>
</g>
<path id="Exclude" fill-rule="evenodd" clip-rule="evenodd" d="M19.0909 0C8.54729 0 0 8.54729 0 19.0909V34.6193L0.255132 34.1819C1.16409 32.5455 3.12745 30.9091 8.07219 30.9091C11.0828 30.9091 16.1638 31.5303 16.4242 36.0001H16.445C16.7055 31.5303 21.7864 30.9091 24.797 30.9091C29.7418 30.9091 31.7051 32.5455 32.6141 34.1819L33.6746 36.0001H35.2989L27.591 22.6496C27.3149 22.1713 27.4788 21.5597 27.9571 21.2836L28.1145 21.1927C28.5928 20.9165 29.2044 21.0804 29.4805 21.5587L38.1818 36.6297V40L37.6083 40L36.5586 38.1819H19.9876C19.6349 39.6165 17.6117 39.9949 16.6418 40H16.6023C16.5416 39.9997 16.4855 39.9978 16.4346 39.9947C16.3837 39.9978 16.3276 39.9997 16.2669 40H16.2275C15.2575 39.9949 13.2343 39.6165 12.8817 38.1819H0V40H16.2275C16.2408 40.0001 16.254 40.0001 16.2669 40H16.6023C16.6153 40.0001 16.6284 40.0001 16.6418 40H38.1818L38.182 40V36.6301L38.1818 36.6297V19.0909C38.1818 17.588 38.0082 16.1256 37.6798 14.7228L37.68 14.7227C37.4887 13.9057 37.245 13.1089 36.9525 12.336L36.9524 12.3361C36.8327 12.0198 36.7049 11.7075 36.5691 11.3995L36.5693 11.3994L36.5692 11.3993L36.5691 11.3993C36.569 11.3993 36.569 11.3992 36.569 11.3991L36.5691 11.399C35.848 9.76287 34.9039 8.24709 33.7753 6.89022C33.7752 6.89019 33.7751 6.89016 33.775 6.89014C30.2731 2.68013 24.995 0 19.0909 0ZM33.775 6.89014C30.9868 6.05527 27.494 6.32488 24.0941 7.77575L22.1521 8.89699C26.4785 6.95548 30.4356 11.498 31.9202 14.0831L36.569 11.3991C35.8478 9.76289 34.9037 8.24705 33.775 6.89014ZM36.5691 11.3993L30.8703 14.6896C29.3856 12.1046 25.4287 7.56213 21.1024 9.50334L21.101 9.5041C17.2563 12.2801 19.2118 17.9785 20.7082 20.5568L36.5691 11.3995C36.5691 11.3994 36.5691 11.3994 36.5691 11.3993ZM36.9524 12.3361L32.4212 14.9521C33.0924 16.1147 34.579 16.513 35.7416 15.8418L37.6798 14.7228C37.4885 13.9058 37.2448 13.1089 36.9524 12.3361ZM19.6577 21.1626C18.1613 18.5841 16.2061 12.8859 20.0511 10.1101L20.051 10.1098L18.1078 11.2317C13.0365 15.0382 10.8388 20.8195 13.1921 24.8955L19.6577 21.1626ZM20.1598 22.0314L13.6937 25.7646C14.3649 26.9271 15.8515 27.3255 17.0141 26.6543L19.2701 25.3517C20.4327 24.6805 20.831 23.194 20.1598 22.0314ZM31.371 15.5584L21.2101 21.4249C21.8813 22.5875 23.3679 22.9858 24.5304 22.3146L30.4813 18.8788C31.6439 18.2076 32.0422 16.721 31.371 15.5584ZM19.8088 9.27135C19.5633 8.84622 19.709 8.3026 20.1341 8.05715C20.5593 7.8117 21.1029 7.95736 21.3483 8.38249L21.5984 8.81559L20.0588 9.70445L19.8088 9.27135Z" fill="#333333"/>
</g>
</svg>
