<svg width="250" height="52" viewBox="0 0 250 52" fill="none" xmlns="http://www.w3.org/2000/svg">
<g id="Frame 156">
<g id="Group 77">
<g id="Group 73">
<path id="Union" fill-rule="evenodd" clip-rule="evenodd" d="M70.1936 19.0962C68.6878 20.8584 66.8456 21.7394 64.667 21.7394H61.9277V29.9092H64.667C66.7495 29.9092 68.832 29.4767 70.9145 28.6116C72.3575 27.99 73.6852 27.1223 74.8974 26.0084C75.6236 26.4639 76.3842 26.851 77.1793 27.1697C79.2964 27.988 81.4134 28.3972 83.5304 28.3972H84.6187V21.386H83.5304C81.7355 21.386 80.1652 20.8386 78.8195 19.7437L78.892 19.5768C79.1483 18.7438 79.4527 17.6385 79.8051 16.2609H84.6186V9.05223H80.9105C81.0386 7.6105 81.1027 6.16878 81.1027 4.72705H72.9329C72.9329 6.00858 72.8368 7.45031 72.6446 9.05223H63.3695V16.2609H71.347C70.9946 17.6065 70.6101 18.5516 70.1936 19.0962ZM96.1124 51.9998H104.473V35.4838H85.9002H67.5182V43.6536H96.1124V51.9998ZM104.473 33.0809V6.14521H96.9096V16.2128H94.1823V6.14521H86.4931V33.0809H94.1823V23.902H96.9096V33.0809H104.473Z" fill="#3542BF"/>
<path id="Union_2" fill-rule="evenodd" clip-rule="evenodd" d="M249.6 51.9995V6.14497H241.43V12.5847H236.192V19.7933H241.43V51.9995H249.6ZM216.825 19.1686C214.454 20.8025 211.907 21.6195 209.184 21.6195H207.527V29.7893H209.184C212.195 29.7893 215.063 29.1645 217.786 27.915C219.405 27.1807 220.925 26.2914 222.345 25.2472C224.088 26.6898 225.993 27.8798 228.06 28.8174C230.783 30.0669 233.651 30.6916 236.662 30.6916H238.254V22.5218H236.662C233.939 22.5218 231.392 21.7049 229.021 20.0709C228.724 19.8661 228.434 19.6554 228.152 19.439C229.547 17.5428 230.641 15.5464 231.434 13.4497C232.363 11.0789 232.828 8.80415 232.828 6.62554H224.658C224.658 8.61192 223.937 10.7905 222.496 13.1614C221.086 15.5322 219.196 17.5346 216.825 19.1686Z" fill="#3542BF"/>
<path id="&#236;&#177;&#133;&#236;&#157;&#132; &#237;&#148;&#188;&#236;&#132;&#156;" d="M140.796 39.5128V38.4074H112.202V31.6794H148.966V44.2705H120.372V45.3758H148.966V51.9997H112.202V39.5128H140.796ZM152.691 30.1896H109.2V23.2213H152.691V30.1896ZM130.945 14.0903C133.572 14.0903 135.638 14.0903 137.144 14.0903C138.682 14.0583 139.579 14.0103 139.835 13.9462C140.124 13.8501 140.268 13.6738 140.268 13.4175C140.268 13.1612 140.124 13.001 139.835 12.937C139.579 12.8409 138.682 12.7928 137.144 12.7928C135.638 12.7608 133.572 12.7447 130.945 12.7447C128.285 12.7447 126.171 12.7608 124.601 12.7928C123.063 12.7928 122.15 12.8409 121.862 12.937C121.573 13.001 121.429 13.1612 121.429 13.4175C121.429 13.6738 121.573 13.8501 121.862 13.9462C122.15 14.0103 123.063 14.0583 124.601 14.0903C126.171 14.0903 128.285 14.0903 130.945 14.0903ZM130.945 21.6354C125.818 21.6354 121.958 21.2509 119.363 20.482C116.8 19.7131 115.134 18.7519 114.365 17.5985C113.628 16.4452 113.259 15.0515 113.259 13.4175C113.259 11.7515 113.644 10.3419 114.413 9.18848C115.182 8.0351 116.848 7.08997 119.411 6.35309C122.006 5.58417 125.85 5.19971 130.945 5.19971C135.975 5.19971 139.771 5.58417 142.334 6.35309C144.897 7.12201 146.547 8.08316 147.284 9.23654C148.053 10.3899 148.437 11.7836 148.437 13.4175C148.437 15.0835 148.037 16.4932 147.236 17.6466C146.467 18.8 144.801 19.7611 142.238 20.5301C139.675 21.2669 135.91 21.6354 130.945 21.6354Z" fill="#3542BF"/>
<path id="Union_3" fill-rule="evenodd" clip-rule="evenodd" d="M163.564 24.8874C171.19 24.8874 176.841 24.7913 181.07 24.5991C182.063 21.7797 182.784 18.7521 183.232 15.5162H190.201C189.56 19.3288 188.903 22.2122 188.23 24.1666C191.434 23.8782 194.029 23.5579 196.016 23.2054V6.14502H204.219V51.9996H196.016V30.9836C185.088 33.3615 169.92 33.0364 163.564 32.5766V24.8874ZM164.983 6.67725H193.565V13.8859H164.983V6.67725ZM175.879 20.4217C175.783 19.7168 175.735 18.8678 175.735 17.8746V15.5679H168.767C168.767 18.6756 169.183 21.479 170.016 23.9779L176.504 22.5362C176.184 21.7993 175.976 21.0945 175.879 20.4217Z" fill="#3542BF"/>
</g>
<path id="Exclude" fill-rule="evenodd" clip-rule="evenodd" d="M24.8182 0C11.1115 0 0 11.1115 0 24.8182V45.0052L0.331747 44.4364C1.51339 42.3091 4.06576 40.1818 10.4939 40.1818C14.4078 40.1818 21.013 40.9893 21.3515 46.8H21.3786C21.7172 40.9893 28.3224 40.1818 32.2362 40.1818C38.6644 40.1818 41.2168 42.3091 42.3984 44.4364L43.777 46.8H45.8884L35.7182 29.1847C35.442 28.7064 35.6059 28.0948 36.0842 27.8187L36.8085 27.4005C37.2868 27.1243 37.8984 27.2882 38.1745 27.7665L49.6364 47.619V52H48.8906L47.5259 49.6364H25.9839C25.4896 51.6473 22.4702 52.0619 21.3651 51.993C20.26 52.0619 17.2406 51.6473 16.7462 49.6364H0V52H48.8906L48.8906 52.0001L49.6364 52.0001V47.6191L49.6364 47.619V24.8182C49.6364 22.8644 49.4106 20.9633 48.9837 19.1396L48.9837 19.1396C48.9661 19.0642 48.9481 18.989 48.9297 18.9138C48.9481 18.989 48.9661 19.0642 48.9837 19.1396L46.464 20.5944C44.9526 21.467 43.0201 20.9492 42.1475 19.4378L48.0381 16.0369C47.8825 15.6256 47.7162 15.2195 47.5397 14.8189L41.4961 18.3082L26.9204 26.7235C24.975 23.3717 22.4329 15.9639 27.4311 12.355L27.4325 12.3542C33.0568 9.83061 38.2008 15.7358 40.1308 19.0963L41.496 18.3081C39.5658 14.9474 34.4214 9.04194 28.7968 11.5666L28.7968 11.5666L31.3215 10.1089C35.7416 8.22248 40.2826 7.87189 43.9076 8.95734C39.3552 3.48424 32.4936 0 24.8182 0ZM25.5551 27.5116C23.6097 24.1596 21.0677 16.7516 26.0664 13.143L26.0663 13.1428L23.5414 14.6006C16.9479 19.5491 14.0904 27.0653 17.1498 32.3644L25.5551 27.5116ZM26.2077 28.6407L17.8018 33.4939C18.6744 35.0052 20.6069 35.523 22.1183 34.6504L25.0511 32.9572C26.5624 32.0846 27.0803 30.1521 26.2077 28.6407ZM40.7823 20.226L27.573 27.8524C28.4456 29.3637 30.3782 29.8816 31.8895 29.009L39.6257 24.5425C41.137 23.6699 41.6549 21.7374 40.7823 20.226ZM25.7514 12.0528C25.4323 11.5001 25.6217 10.7934 26.1743 10.4744C26.727 10.1553 27.4337 10.3446 27.7528 10.8973L28.0779 11.4603L26.0765 12.6158L25.7514 12.0528Z" fill="#3542BF"/>
</g>
</g>
</svg>
